<svg width="44" height="44" viewBox="0 0 44 44" fill="none" xmlns="http://www.w3.org/2000/svg">
<path d="M34.3991 0.650156C33.3584 0.650156 32.5145 1.49397 32.5145 2.53476V23.7347H6.61722V2.53476C6.61722 1.49397 7.46112 0.650156 8.50183 0.650156H34.3991Z" fill="#F2FBFF"/>
<path d="M32.5145 20.2972V23.7347H6.6172V17.6279H15.3373L18.0065 20.2972H32.5145Z" fill="#DFF6FD"/>
<path d="M10.2206 0.650156C9.17986 0.650156 8.33595 1.49397 8.33595 2.53476V23.7347H6.6172V2.53476C6.6172 1.49397 7.46111 0.650156 8.50181 0.650156H10.2206Z" fill="#DFF6FD"/>
<path d="M40.052 5.67498L36.2834 5.67489V8.81539C36.2834 9.8561 37.1271 10.6997 38.1678 10.6997C39.2085 10.6997 40.052 9.8561 40.052 8.81539V5.67498Z" fill="#DFF6FD"/>
<path d="M38.1677 10.6997H32.5149V2.53447C32.5149 1.49376 33.3585 0.6502 34.3991 0.6502C35.4398 0.6502 36.2835 1.49376 36.2835 2.53447V5.67488V8.81538C36.2835 9.85608 37.1271 10.6997 38.1677 10.6997Z" fill="#C8EFFE"/>
<path d="M14.6254 8.66885H9.2865V3.32999H14.6254V8.66885Z" fill="#FD8087"/>
<path d="M35.9806 43.3499H3.94768V19.3465H14.6253L17.2947 22.0159H35.9806V43.3499Z" fill="#FAF7F5"/>
<path d="M5.66672 43.35H3.94797V19.3467H5.66672V43.35Z" fill="#F2E3D7"/>
<path d="M26.6377 32.7314C26.6377 36.4171 23.6498 39.4049 19.9641 39.4049C16.2784 39.4049 13.2906 36.4171 13.2906 32.7314C13.2906 29.0457 16.2784 26.0579 19.9641 26.0579C23.6498 26.0579 26.6377 29.0457 26.6377 32.7314Z" fill="#FD8087"/>
<path d="M23.9682 31.3968H21.2989V28.7274H18.6294V31.3968H15.96V34.0662H18.6294V36.7356H21.2989V34.0662H23.9682V31.3968Z" fill="#F2FBFF"/>
<path d="M39.4075 8.81537C39.4075 9.49883 38.8513 10.0551 38.1678 10.0551C37.4841 10.0551 36.928 9.49883 36.928 8.81537V6.31931H39.4075V8.81537ZM33.1594 10.0551V2.53437C33.1594 1.85074 33.7156 1.29463 34.3992 1.29463C35.0828 1.29463 35.6389 1.85074 35.6389 2.53437V8.81537C35.6389 9.26551 35.7571 9.68849 35.9642 10.0551H33.1594ZM40.052 5.03025H36.928V2.53437C36.928 1.14098 35.7953 0.00737572 34.4023 0.00557137C34.4013 0.00557137 34.4002 0.0053997 34.3991 0.0053997H24.7053C24.3494 0.0053997 24.0608 0.293978 24.0608 0.649931C24.0608 1.00597 24.3494 1.29446 24.7053 1.29446H32.1964C31.9892 1.66116 31.8704 2.08405 31.8704 2.53437L31.8699 21.3713H17.5619L15.0814 18.8909C14.9605 18.77 14.7966 18.702 14.6257 18.702H7.26173V2.53454C7.26173 1.85074 7.81801 1.29446 8.50181 1.29446H21.896C22.252 1.29446 22.5406 1.00597 22.5406 0.649931C22.5406 0.293978 22.252 0.0053997 21.896 0.0053997H8.50181C7.10722 0.0053997 5.97267 1.14003 5.97267 2.53454V18.702H3.94798C3.59203 18.702 3.30345 18.9905 3.30345 19.3466V43.3498C3.30345 43.7058 3.59203 43.9943 3.94798 43.9943H7.8822C8.23815 43.9943 8.52673 43.7058 8.52673 43.3498C8.52673 42.9938 8.23815 42.7052 7.8822 42.7052H4.59251V19.9911H14.3587L16.8392 22.4715C16.96 22.5924 17.124 22.6603 17.2949 22.6603H35.3358V27.5288C35.3358 27.8847 35.6244 28.1733 35.9803 28.1733C36.3363 28.1733 36.6249 27.8847 36.6249 27.5288V22.0158C36.6249 21.6598 36.3363 21.3713 35.9803 21.3713H33.159V11.3442H38.1678C39.5621 11.3442 40.6966 10.2097 40.6966 8.81537V5.67478C40.6966 5.31874 40.408 5.03025 40.052 5.03025Z" fill="black"/>
<path d="M9.93103 3.97461H13.9808V8.02424H9.93103V3.97461ZM9.2865 9.3133H14.6254C14.9813 9.3133 15.2699 9.02481 15.2699 8.66877V3.33008C15.2699 2.97404 14.9813 2.68554 14.6254 2.68554H9.2865C8.93055 2.68554 8.64197 2.97404 8.64197 3.33008V8.66877C8.64197 9.02481 8.93055 9.3133 9.2865 9.3133Z" fill="black"/>
<path d="M29.3071 2.68555H17.2947C16.9388 2.68555 16.6502 2.97405 16.6502 3.33009C16.6502 3.68612 16.9388 3.97462 17.2947 3.97462H29.3071C29.663 3.97462 29.9516 3.68612 29.9516 3.33009C29.9516 2.97405 29.663 2.68555 29.3071 2.68555Z" fill="black"/>
<path d="M29.3071 5.35498H17.2947C16.9388 5.35498 16.6502 5.64347 16.6502 5.99951C16.6502 6.35555 16.9388 6.64404 17.2947 6.64404H29.3071C29.663 6.64404 29.9516 6.35555 29.9516 5.99951C29.9516 5.64347 29.663 5.35498 29.3071 5.35498Z" fill="black"/>
<path d="M29.3071 8.02424H17.2947C16.9388 8.02424 16.6502 8.31273 16.6502 8.66877C16.6502 9.02481 16.9388 9.3133 17.2947 9.3133H29.3071C29.663 9.3133 29.9516 9.02481 29.9516 8.66877C29.9516 8.31273 29.663 8.02424 29.3071 8.02424Z" fill="black"/>
<path d="M29.3071 10.6937H9.28648C8.93053 10.6937 8.64195 10.9822 8.64195 11.3382C8.64195 11.6942 8.93053 11.9827 9.28648 11.9827H29.3071C29.663 11.9827 29.9516 11.6942 29.9516 11.3382C29.9516 10.9822 29.663 10.6937 29.3071 10.6937Z" fill="black"/>
<path d="M29.3071 13.3631H9.28648C8.93053 13.3631 8.64195 13.6516 8.64195 14.0076C8.64195 14.3637 8.93053 14.6522 9.28648 14.6522H29.3071C29.663 14.6522 29.9516 14.3637 29.9516 14.0076C29.9516 13.6516 29.663 13.3631 29.3071 13.3631Z" fill="black"/>
<path d="M29.3071 16.0325H9.28648C8.93053 16.0325 8.64195 16.321 8.64195 16.6771C8.64195 17.0331 8.93053 17.3216 9.28648 17.3216H29.3071C29.663 17.3216 29.9516 17.0331 29.9516 16.6771C29.9516 16.321 29.663 16.0325 29.3071 16.0325Z" fill="black"/>
<path d="M35.9803 29.6936C35.6244 29.6936 35.3358 29.9821 35.3358 30.3381V42.7054H10.6906C10.3347 42.7054 10.0461 42.994 10.0461 43.3499C10.0461 43.706 10.3347 43.9944 10.6906 43.9944H35.9803C36.3363 43.9944 36.6249 43.706 36.6249 43.3499V30.3381C36.6249 29.9821 36.3363 29.6936 35.9803 29.6936Z" fill="black"/>
<path d="M13.2906 21.3714H6.61713C6.26117 21.3714 5.9726 21.6599 5.9726 22.0159C5.9726 22.372 6.26117 22.6605 6.61713 22.6605H13.2906C13.6466 22.6605 13.9351 22.372 13.9351 22.0159C13.9351 21.6599 13.6466 21.3714 13.2906 21.3714Z" fill="black"/>
<path d="M16.6046 32.0413H18.6294C18.9854 32.0413 19.274 31.7528 19.274 31.3967V29.3719H20.6544V31.3967C20.6544 31.7528 20.9429 32.0413 21.2989 32.0413H23.3238V33.4216H21.2989C20.9429 33.4216 20.6544 33.7102 20.6544 34.0661V36.0911H19.274V34.0661C19.274 33.7102 18.9854 33.4216 18.6294 33.4216H16.6046V32.0413ZM15.96 34.7107H17.9849V36.7356C17.9849 37.0916 18.2735 37.3801 18.6294 37.3801H21.2989C21.6549 37.3801 21.9434 37.0916 21.9434 36.7356V34.7107H23.9683C24.3242 34.7107 24.6128 34.4222 24.6128 34.0661V31.3967C24.6128 31.0407 24.3242 30.7522 23.9683 30.7522H21.9434V28.7273C21.9434 28.3713 21.6549 28.0827 21.2989 28.0827H18.6294C18.2735 28.0827 17.9849 28.3713 17.9849 28.7273V30.7522H15.96C15.6041 30.7522 15.3155 31.0407 15.3155 31.3967V34.0661C15.3155 34.4222 15.6041 34.7107 15.96 34.7107Z" fill="black"/>
<path d="M19.9642 26.7024C23.2886 26.7024 25.9932 29.4071 25.9932 32.7314C25.9932 36.0558 23.2886 38.7605 19.9642 38.7605C16.6397 38.7605 13.9351 36.0558 13.9351 32.7314C13.9351 29.4071 16.6397 26.7024 19.9642 26.7024ZM19.9642 40.0495C23.9993 40.0495 27.2822 36.7666 27.2822 32.7314C27.2822 28.6962 23.9993 25.4133 19.9642 25.4133C15.929 25.4133 12.6461 28.6962 12.6461 32.7314C12.6461 36.7666 15.929 40.0495 19.9642 40.0495Z" fill="black"/>
</svg>
