<svg width="44" height="44" viewBox="0 0 44 44" fill="none" xmlns="http://www.w3.org/2000/svg">
<g clip-path="url(#clip0_35_393)">
<path d="M29.0915 43.3551H6.91612C3.67832 43.3551 1.0536 40.7304 1.0536 37.4926V11.0629C1.0536 7.82509 3.67832 5.20037 6.91612 5.20037H29.0914C32.3292 5.20037 34.9539 7.82509 34.9539 11.0629V37.4926C34.9539 40.7304 32.3292 43.3551 29.0915 43.3551Z" fill="#F4FBFF"/>
<path d="M9.70439 43.3555H6.9169C3.67807 43.3555 1.0537 40.7311 1.0537 37.4923V11.0629C1.0537 7.82517 3.67807 5.2008 6.9169 5.2008H9.70439C6.46667 5.2008 3.8423 7.82517 3.8423 11.0629V37.4922C3.8423 40.7311 6.46667 43.3555 9.70439 43.3555Z" fill="#E4F6FF"/>
<path d="M22.9859 4.02861C22.1993 2.04662 20.2659 0.644539 18.0038 0.644539C15.7418 0.644539 13.8084 2.04662 13.0218 4.02861H11.1339C9.10832 4.02861 7.46622 5.67071 7.46622 7.69627C7.46622 9.72183 9.10832 11.3639 11.1339 11.3639H24.8739C26.8995 11.3639 28.5416 9.72183 28.5416 7.69627C28.5416 5.67071 26.8995 4.02861 24.8739 4.02861H22.9859Z" fill="#FFE07D"/>
<path d="M19.7511 0.936983C18.273 1.4453 17.0899 2.58269 16.5157 4.02833H14.6276C12.602 4.02833 10.9597 5.67068 10.9597 7.69622C10.9597 8.7084 11.3708 9.62569 12.0345 10.2893C12.6981 10.954 13.6143 11.364 14.6276 11.364H11.1339C10.1217 11.364 9.20446 10.954 8.54085 10.2893C7.87613 9.62569 7.46603 8.7084 7.46603 7.69622C7.46603 5.67068 9.10839 4.02833 11.1339 4.02833H13.0209C13.8086 2.04635 15.7414 0.644279 18.0038 0.644279C18.6161 0.644279 19.2037 0.747061 19.7511 0.936983Z" fill="#FFD064"/>
<path d="M18.0037 8.19717C19.2149 8.19717 20.1967 7.21535 20.1967 6.00422C20.1967 4.79308 19.2149 3.81126 18.0037 3.81126C16.7926 3.81126 15.8108 4.79308 15.8108 6.00422C15.8108 7.21535 16.7926 8.19717 18.0037 8.19717Z" fill="#365E7D"/>
<path d="M11.8643 23.3396H8.10377C6.90013 23.3396 5.92439 22.3639 5.92439 21.1602V17.3997C5.92439 16.196 6.90013 15.2203 8.10377 15.2203H11.8643C13.0679 15.2203 14.0437 16.196 14.0437 17.3997V21.1602C14.0438 22.3639 13.0679 23.3396 11.8643 23.3396Z" fill="#B3E59F"/>
<path d="M11.8643 35.6121H8.10377C6.90013 35.6121 5.92439 34.6363 5.92439 33.4327V29.6721C5.92439 28.4685 6.90013 27.4928 8.10377 27.4928H11.8643C13.0679 27.4928 14.0437 28.4685 14.0437 29.6721V33.4327C14.0438 34.6363 13.0679 35.6121 11.8643 35.6121Z" fill="#B3E59F"/>
<path d="M34.7567 20.7245C35.6675 21.4392 36.9853 21.2801 37.6999 20.3692L42.17 14.6718C42.8846 13.761 42.7256 12.4432 41.8147 11.7286C40.9039 11.014 39.5862 11.1731 38.8715 12.0839L34.4014 17.7813C33.6868 18.6922 33.8458 20.0098 34.7567 20.7245Z" fill="#80B4FB"/>
<path d="M27.0334 29.0358L26.2874 29.9867C25.4211 31.0907 23.8239 31.2835 22.7199 30.4173C21.6158 29.551 21.423 27.9538 22.2892 26.8498L23.0353 25.899L27.0204 25.5535L27.0334 29.0358Z" fill="#FFE07D"/>
<path d="M23.3355 29.9555C23.374 30.2746 23.4737 30.5871 23.63 30.8736C23.308 30.7873 22.998 30.6363 22.7192 30.4176C22.1676 29.9848 21.8429 29.3683 21.765 28.7232C21.6878 28.0774 21.8558 27.402 22.2892 26.8497L23.035 25.8991L27.0198 25.5535L27.0252 26.9222L24.6055 27.1313L23.8597 28.0819C23.4264 28.6343 23.2583 29.3096 23.3355 29.9555Z" fill="#FFD064"/>
<path d="M37.7444 15.3832L27.0331 29.0356L23.0353 25.899L33.7271 12.2717" fill="#E27F83"/>
<path d="M35.3175 13.4791L24.6061 27.1315L23.0353 25.899L33.7271 12.2717" fill="#C8646D"/>
<path d="M38.7905 13.5895L42.6702 7.66927C43.1427 6.94816 42.9847 5.98523 42.3063 5.45302C41.628 4.92081 40.6552 4.99644 40.0672 5.62705L35.2402 10.8039" fill="#9DC6FB"/>
<path d="M42.3066 5.45268C42.2428 5.40258 42.0822 5.48654 41.8705 5.66658C41.6589 5.84653 41.3949 6.12265 41.1244 6.45669L36.6829 11.935L35.2409 10.8037L40.0671 5.62722C40.3609 5.31148 40.7519 5.13505 41.1529 5.1036C41.5547 5.07266 41.967 5.18619 42.3066 5.45268Z" fill="#80B4FB"/>
<path d="M38.7905 13.5895L35.2402 10.804C34.6826 10.3666 33.8761 10.464 33.4387 11.0215C33.0012 11.579 33.0986 12.3855 33.6561 12.823L37.2064 15.6085C37.764 16.0459 38.5705 15.9485 39.0079 15.391C39.4454 14.8336 39.3481 14.027 38.7905 13.5895Z" fill="#9DC6FB"/>
<path d="M34.9397 13.3525C34.9791 13.6784 35.1431 13.9892 35.4219 14.2079L33.656 12.8225C33.3772 12.6037 33.2132 12.2929 33.1738 11.967C33.1344 11.6412 33.2199 11.3002 33.4386 11.0215C33.876 10.4639 34.6826 10.3658 35.2402 10.8033L37.0061 12.1888C36.4485 11.7514 35.642 11.8494 35.2045 12.4069C34.9858 12.6857 34.9005 13.0266 34.9397 13.3525Z" fill="#80B4FB"/>
<path d="M18.0038 3.16664C16.4393 3.16664 15.1663 4.43955 15.1663 6.00413C15.1663 7.5687 16.4392 8.84161 18.0038 8.84161C19.5685 8.84161 20.8413 7.5687 20.8413 6.00413C20.8413 4.43955 19.5684 3.16664 18.0038 3.16664ZM18.0038 7.55263C17.15 7.55263 16.4553 6.858 16.4553 6.00421C16.4553 5.15042 17.15 4.45579 18.0038 4.45579C18.8576 4.45579 19.5523 5.15042 19.5523 6.00421C19.5523 6.858 18.8575 7.55263 18.0038 7.55263Z" fill="black"/>
<path d="M8.10377 23.9841H11.8643C13.4214 23.9841 14.6882 22.7173 14.6882 21.1602V17.3997C14.6882 15.8426 13.4214 14.5758 11.8643 14.5758H8.10377C6.54667 14.5758 5.27986 15.8426 5.27986 17.3997V21.1602C5.27986 22.7173 6.54667 23.9841 8.10377 23.9841ZM6.56892 17.3997C6.56892 16.5534 7.25745 15.8648 8.10377 15.8648H11.8643C12.7107 15.8648 13.3992 16.5534 13.3992 17.3997V21.1602C13.3992 22.0065 12.7106 22.6951 11.8643 22.6951H8.10377C7.25737 22.6951 6.56892 22.0065 6.56892 21.1602V17.3997Z" fill="black"/>
<path d="M9.06311 21.5958C9.186 21.7449 9.3687 21.8305 9.56043 21.8305C9.57418 21.8305 9.58793 21.83 9.60168 21.8292C9.80827 21.8159 9.99596 21.7043 10.1061 21.529L12.3537 17.9542C12.5431 17.6529 12.4524 17.2551 12.1511 17.0656C11.8497 16.8761 11.4517 16.9668 11.2623 17.2681L9.49005 20.087L8.55573 18.9531C8.3292 18.6783 7.92306 18.6393 7.64841 18.8655C7.37375 19.0919 7.33456 19.4981 7.56084 19.7729L9.06311 21.5958Z" fill="black"/>
<path d="M16.9223 18.2949H26.9628C27.3189 18.2949 27.6074 18.0063 27.6074 17.6504C27.6074 17.2944 27.3189 17.0058 26.9628 17.0058H16.9223C16.5663 17.0058 16.2778 17.2944 16.2778 17.6504C16.2778 18.0063 16.5663 18.2949 16.9223 18.2949Z" fill="black"/>
<path d="M16.9223 21.554H21.9426C22.2987 21.554 22.5871 21.2654 22.5871 20.9095C22.5871 20.5535 22.2987 20.265 21.9426 20.265H16.9223C16.5663 20.265 16.2778 20.5535 16.2778 20.9095C16.2778 21.2654 16.5663 21.554 16.9223 21.554Z" fill="black"/>
<path d="M5.27986 33.4327C5.27986 34.9898 6.54667 36.2566 8.10377 36.2566H11.8643C13.4214 36.2566 14.6882 34.9898 14.6882 33.4327V29.6721C14.6882 28.115 13.4214 26.8482 11.8643 26.8482H8.10377C6.54667 26.8482 5.27986 28.115 5.27986 29.6721V33.4327ZM6.56892 29.6721C6.56892 28.8258 7.25745 28.1373 8.10377 28.1373H11.8643C12.7107 28.1373 13.3992 28.8258 13.3992 29.6721V33.4327C13.3992 34.279 12.7106 34.9675 11.8643 34.9675H8.10377C7.25737 34.9675 6.56892 34.279 6.56892 33.4327V29.6721Z" fill="black"/>
<path d="M9.06311 33.8683C9.186 34.0174 9.3687 34.1029 9.56043 34.1029C9.57418 34.1029 9.58793 34.1025 9.60168 34.1016C9.80827 34.0884 9.99596 33.9768 10.1061 33.8015L12.3537 30.2267C12.5431 29.9253 12.4524 29.5275 12.1511 29.338C11.8498 29.1485 11.4517 29.2393 11.2623 29.5406L9.49005 32.3594L8.55573 31.2256C8.3292 30.9508 7.92306 30.9117 7.64841 31.138C7.37375 31.3643 7.33456 31.7706 7.56084 32.0453L9.06311 33.8683Z" fill="black"/>
<path d="M21.9426 33.8265C22.2987 33.8265 22.5871 33.5379 22.5871 33.1819C22.5871 32.826 22.2987 32.5374 21.9426 32.5374H16.9223C16.5663 32.5374 16.2778 32.826 16.2778 33.1819C16.2778 33.5379 16.5663 33.8265 16.9223 33.8265H21.9426Z" fill="black"/>
<path d="M42.2127 11.2215C41.9653 11.0274 41.6915 10.8797 41.4018 10.7813L43.2094 8.02274C43.8703 7.01323 43.6533 5.69064 42.7046 4.94625C42.2999 4.62871 41.7945 4.45391 41.2814 4.45391C40.6452 4.45391 40.0309 4.72118 39.5959 5.18722L38.9015 5.93144C38.6586 6.19175 38.6727 6.59952 38.933 6.84238C39.1932 7.08533 39.6012 7.07106 39.844 6.81084L40.5382 6.06679C40.7332 5.85796 40.9971 5.74298 41.2814 5.74298C41.5106 5.74298 41.7275 5.81817 41.9088 5.96049C42.3269 6.28851 42.4224 6.87152 42.131 7.3165L38.6365 12.6496L36.1901 10.7301L38.0876 8.69546C38.3302 8.43516 38.3161 8.0273 38.0558 7.78452C37.7955 7.54175 37.3876 7.55601 37.1447 7.81632L35.4414 9.64276C34.7881 6.72542 32.1614 4.55626 29.0917 4.55626H27.8247C27.0527 3.83034 26.0146 3.38415 24.8738 3.38415H23.4062C22.4063 1.31425 20.3312 0 18.0038 0C15.6765 0 13.6013 1.31425 12.6014 3.38407H11.1339C9.99296 3.38407 8.955 3.83017 8.18293 4.55617H6.91647C3.32838 4.55617 0.409241 7.47489 0.409241 11.0625V37.4928C0.409241 41.0809 3.32838 44 6.91647 44H8.41522C8.77127 44 9.05976 43.7114 9.05976 43.3555C9.05976 42.9995 8.77127 42.7109 8.41522 42.7109H6.91647C4.03918 42.7109 1.69831 40.3701 1.69831 37.4928V11.0625C1.69831 8.18568 4.03909 5.84524 6.91647 5.84524H7.23977C6.9719 6.40651 6.8215 7.03411 6.8215 7.69626C6.8215 10.074 8.75597 12.0085 11.1338 12.0085H24.8738C27.2515 12.0085 29.186 10.074 29.186 7.69626C29.186 7.03411 29.0356 6.40642 28.7677 5.84524H29.0917C31.5478 5.84524 33.6495 7.57638 34.1794 9.90702C33.7033 9.97405 33.251 10.2162 32.9314 10.6236C32.6136 11.0287 32.4725 11.5333 32.5342 12.0445C32.5564 12.2277 32.6045 12.4034 32.6748 12.5688L21.7821 26.4518C21.2569 27.1213 21.0238 27.9551 21.1257 28.7999C21.1454 28.9633 21.1775 29.1231 21.2208 29.2787H16.9221C16.566 29.2787 16.2775 29.5673 16.2775 29.9233C16.2775 30.2792 16.566 30.5678 16.9221 30.5678H21.7825L21.3904 31.0675C21.1707 31.3476 21.2196 31.7527 21.4996 31.9725C21.6176 32.065 21.7579 32.11 21.8971 32.11C22.0882 32.11 22.2775 32.0253 22.4046 31.8632L22.8693 31.2709C23.3074 31.49 23.7886 31.6041 24.282 31.6041C24.4107 31.6041 24.5404 31.5964 24.6701 31.5807C25.5149 31.4787 26.2693 31.0539 26.7945 30.3845L34.1315 21.0324C34.1879 21.0876 34.2475 21.1401 34.3093 21.1909V37.4928C34.3093 40.3701 31.9689 42.7109 29.092 42.7109H10.9935C10.6374 42.7109 10.3489 42.9995 10.3489 43.3555C10.3489 43.7114 10.6374 44 10.9935 44H29.092C32.6796 44 35.5984 41.0809 35.5984 37.4928V21.7783C35.7474 21.803 35.8977 21.8154 36.0477 21.8154C36.8613 21.8154 37.6672 21.4557 38.2072 20.7674L42.6773 15.07C43.1293 14.494 43.3298 13.7765 43.242 13.0496C43.1542 12.3226 42.7886 11.6734 42.2127 11.2215ZM24.8738 10.7194H11.1338C9.46685 10.7194 8.11057 9.3632 8.11057 7.69626C8.11057 6.02932 9.46676 4.67314 11.1338 4.67314H13.0217C13.2858 4.67314 13.5233 4.51192 13.6207 4.26639C14.3387 2.45774 16.0592 1.28907 18.0038 1.28907C19.9486 1.28907 21.6689 2.45774 22.3869 4.26639C22.4843 4.51192 22.7217 4.67314 22.9859 4.67314H24.8739C26.5408 4.67314 27.897 6.02932 27.897 7.69626C27.897 9.3632 26.5408 10.7194 24.8738 10.7194ZM33.9458 11.4193C34.0511 11.285 34.2023 11.2 34.3717 11.1795C34.3977 11.1763 34.4236 11.1748 34.4495 11.1748C34.5916 11.1748 34.7288 11.222 34.8423 11.3111L38.3925 14.0967H38.3926C38.5269 14.2019 38.612 14.3532 38.6324 14.5226C38.6529 14.692 38.6061 14.8591 38.5009 14.9933C38.2836 15.2703 37.8812 15.3188 37.6042 15.1015L34.0539 12.3159C33.9196 12.2107 33.8345 12.0594 33.8141 11.89C33.7937 11.7207 33.8404 11.5535 33.9458 11.4193ZM26.9238 28.1306L25.9391 27.3581L32.9916 18.3693C33.2113 18.0893 33.1624 17.6841 32.8824 17.4644C32.6021 17.2447 32.1971 17.2936 31.9774 17.5736L24.9249 26.5625L23.9403 25.7899L33.5415 13.5524L36.5251 15.8933L26.9238 28.1306ZM24.5155 30.301C24.0125 30.3615 23.5162 30.2228 23.1177 29.9102C22.7191 29.5976 22.4662 29.1484 22.4055 28.6455C22.3448 28.1425 22.4835 27.6462 22.7963 27.2476L23.1444 26.8039L26.1284 29.1451L25.7803 29.5888C25.4676 29.9874 25.0184 30.2403 24.5155 30.301ZM41.6631 14.2743L37.1929 19.9717C36.6986 20.6017 35.7841 20.7119 35.1542 20.2178C35.0731 20.1541 35.0014 20.0825 34.937 20.0054L37.6867 16.5008C37.7893 16.5175 37.8929 16.5258 37.9963 16.5258C38.5685 16.5258 39.1352 16.2728 39.515 15.7888C39.8328 15.3837 39.9739 14.879 39.9122 14.3679C39.8753 14.0625 39.7674 13.7775 39.6012 13.529L40.648 11.9314C40.9261 11.9551 41.1921 12.0592 41.4169 12.2355C41.7219 12.4748 41.9155 12.8187 41.962 13.2039C42.0085 13.589 41.9024 13.9693 41.6631 14.2743Z" fill="black"/>
</g>
<defs>
<clipPath id="clip0_35_393">
<rect width="44" height="44" fill="white"/>
</clipPath>
</defs>
</svg>
