<svg width="46" height="46" viewBox="0 0 46 46" fill="none" xmlns="http://www.w3.org/2000/svg">
<path d="M38.931 0.541618H8.25504C7.46129 0.541618 6.80762 1.19529 6.80762 1.98904V41.6391C6.80762 43.7495 8.51651 45.4584 10.6269 45.4584H40.3878V1.98904C40.3785 1.18595 39.7341 0.541618 38.931 0.541618Z" fill="#F4FBFF"/>
<g opacity="0.1">
<path d="M9.7118 11.8782V0.541618H8.26438C7.47063 0.541618 6.81696 1.19529 6.81696 1.98904V41.6391C6.81696 43.7495 8.52585 45.4584 10.6363 45.4584H40.3971V42.5635C23.4483 42.5635 9.7118 28.827 9.7118 11.8782Z" fill="black"/>
</g>
<path d="M44.4872 39.2672H15.1653C14.7637 39.2672 14.4369 39.594 14.4369 39.9955V41.6391C14.4369 43.7495 12.728 45.4584 10.6176 45.4584H41.3869C43.4974 45.4584 45.2063 43.7495 45.2063 41.6391V39.9955C45.2156 39.594 44.8888 39.2672 44.4872 39.2672Z" fill="#5D5B68"/>
<path d="M28.3041 7.78806H25.0451V4.52903C25.0451 4.32359 24.8864 4.16484 24.6809 4.16484H22.5051C22.2997 4.16484 22.1409 4.32359 22.1409 4.52903V7.78806H18.8819C18.6764 7.78806 18.5177 7.94681 18.5177 8.15225V10.3281C18.5177 10.5335 18.6764 10.6922 18.8819 10.6922H22.1409V13.9419C22.1409 14.1474 22.2997 14.3061 22.5051 14.3061H24.6809C24.8864 14.3061 25.0451 14.1474 25.0451 13.9419V10.6829H28.3041C28.5096 10.6829 28.6683 10.5242 28.6683 10.3187V8.15225C28.6683 7.95615 28.5002 7.78806 28.3041 7.78806Z" fill="#FF4823"/>
<path d="M7.41455 40.6585C11.2052 40.6585 14.2781 37.5856 14.2781 33.795C14.2781 30.0043 11.2052 26.9314 7.41455 26.9314C3.62389 26.9314 0.550964 30.0043 0.550964 33.795C0.550964 37.5856 3.62389 40.6585 7.41455 40.6585Z" fill="#B3E59F"/>
<g opacity="0.35">
<path d="M7.41459 26.9314C6.91966 26.9314 6.44341 26.9781 5.9765 27.0808C6.06055 27.8092 6.66753 28.3788 7.41459 28.3788C10.4028 28.3788 12.8307 30.8067 12.8307 33.795C12.8307 34.542 13.4004 35.149 14.1288 35.233C14.2315 34.7661 14.2782 34.2899 14.2782 33.795C14.2688 30.0037 11.1966 26.9314 7.41459 26.9314Z" fill="white"/>
</g>
<g opacity="0.1">
<path d="M10.8977 37.1754C7.10638 37.1754 4.03412 34.1031 4.03412 30.3118C4.03412 29.322 4.24889 28.3788 4.63176 27.529C2.2225 28.6029 0.550964 31.0028 0.550964 33.8043C0.550964 37.5956 3.62323 40.6679 7.41455 40.6679C10.2067 40.6679 12.6159 38.987 13.6898 36.5871C12.8307 36.9606 11.8875 37.1754 10.8977 37.1754Z" fill="black"/>
</g>
<g opacity="0.15">
<path d="M19.9744 43.1332C19.1807 43.1332 18.527 42.4795 18.527 41.6858V39.2765H15.1746C14.7731 39.2765 14.4462 39.6033 14.4462 40.0049V41.6484C14.4462 43.7588 12.7373 45.4677 10.6269 45.4677H41.3963C42.9744 45.4677 44.3285 44.5059 44.9074 43.1425H19.9744V43.1332Z" fill="black"/>
</g>
<g opacity="0.5">
<path d="M38.931 0.541618H20.983C20.983 2.13845 22.281 3.43646 23.8778 3.43646H37.4929V21.4125C37.4929 23.0093 38.7909 24.3074 40.3878 24.3074V1.98904C40.3784 1.18595 39.7341 0.541618 38.931 0.541618Z" fill="white"/>
</g>
<g opacity="0.1">
<path d="M27.7719 10.1413C25.1758 10.1413 22.7853 9.25416 20.8803 7.78806H18.8912C18.6858 7.78806 18.527 7.94681 18.527 8.15225V10.3281C18.527 10.5335 18.6858 10.6922 18.8912 10.6922H22.1503V13.9419C22.1503 14.1474 22.309 14.3061 22.5145 14.3061H24.6903C24.8957 14.3061 25.0544 14.1474 25.0544 13.9419V10.6829H28.3135C28.5189 10.6829 28.6777 10.5242 28.6777 10.3187V10.0946C28.3695 10.1226 28.0707 10.1413 27.7719 10.1413Z" fill="black"/>
</g>
<path d="M41.3963 46H10.6175C10.3187 46 10.0759 45.7572 10.0759 45.4584C10.0759 45.1596 10.3187 44.9168 10.6175 44.9168C12.4198 44.9168 13.8953 43.4507 13.8953 41.6391V39.2672C13.8953 38.9683 14.138 38.7255 14.4369 38.7255H45.2063C45.5051 38.7255 45.7479 38.9683 45.7479 39.2672V41.6391C45.7572 44.0483 43.7962 46 41.3963 46ZM13.503 44.9168H41.3963C43.1985 44.9168 44.674 43.4507 44.674 41.6391V39.8181H14.9785V41.6391C14.9785 42.9464 14.4089 44.1137 13.503 44.9168Z" fill="#211E27"/>
<path d="M24.6808 14.8477H22.505C22.0008 14.8477 21.5992 14.4462 21.5992 13.9419V11.2245H18.8818C18.3776 11.2245 17.976 10.823 17.976 10.3187V8.15225C17.976 7.64799 18.3776 7.24645 18.8818 7.24645H21.5992V4.52903C21.5992 4.02477 22.0008 3.62322 22.505 3.62322H24.6808C25.1851 3.62322 25.5867 4.02477 25.5867 4.52903V7.24645H28.3041C28.8083 7.24645 29.2099 7.64799 29.2099 8.15225V10.3281C29.2099 10.8323 28.8083 11.2339 28.3041 11.2339H25.5867V13.9419C25.5867 14.4462 25.1851 14.8477 24.6808 14.8477ZM22.6918 13.7645H24.5034V10.6829C24.5034 10.3841 24.7462 10.1413 25.045 10.1413H28.1266V8.32968H25.045C24.7462 8.32968 24.5034 8.08688 24.5034 7.78806V4.70645H22.6918V7.78806C22.6918 8.08688 22.449 8.32968 22.1502 8.32968H19.0686V10.1413H22.1502C22.449 10.1413 22.6918 10.3841 22.6918 10.6829V13.7645Z" fill="#211E27"/>
<path d="M35.6532 18.3216H11.542C11.2432 18.3216 11.0004 18.0788 11.0004 17.7799C11.0004 17.4811 11.2432 17.2383 11.542 17.2383H35.6532C35.9521 17.2383 36.1948 17.4811 36.1948 17.7799C36.1948 18.0788 35.9427 18.3216 35.6532 18.3216Z" fill="#211E27"/>
<path d="M35.6532 21.6179H11.542C11.2432 21.6179 11.0004 21.3752 11.0004 21.0763C11.0004 20.7775 11.2432 20.5347 11.542 20.5347H35.6532C35.9521 20.5347 36.1948 20.7775 36.1948 21.0763C36.1948 21.3752 35.9427 21.6179 35.6532 21.6179Z" fill="#211E27"/>
<path d="M35.6532 24.9143H11.542C11.2432 24.9143 11.0004 24.6715 11.0004 24.3727C11.0004 24.0739 11.2432 23.8311 11.542 23.8311H35.6532C35.9521 23.8311 36.1948 24.0739 36.1948 24.3727C36.1948 24.6715 35.9427 24.9143 35.6532 24.9143Z" fill="#211E27"/>
<path d="M35.6532 28.2014H25.4559C25.1571 28.2014 24.9143 27.9586 24.9143 27.6598C24.9143 27.3609 25.1571 27.1181 25.4559 27.1181H35.6439C35.9427 27.1181 36.1855 27.3609 36.1855 27.6598C36.1855 27.9586 35.9427 28.2014 35.6532 28.2014Z" fill="#211E27"/>
<path d="M35.6532 31.4978H25.4559C25.1571 31.4978 24.9143 31.255 24.9143 30.9562C24.9143 30.6573 25.1571 30.4145 25.4559 30.4145H35.6439C35.9427 30.4145 36.1855 30.6573 36.1855 30.9562C36.1855 31.255 35.9427 31.4978 35.6532 31.4978Z" fill="#211E27"/>
<path d="M35.6532 34.7942H25.4559C25.1571 34.7942 24.9143 34.5514 24.9143 34.2525C24.9143 33.9537 25.1571 33.7109 25.4559 33.7109H35.6439C35.9427 33.7109 36.1855 33.9537 36.1855 34.2525C36.1855 34.5514 35.9427 34.7942 35.6532 34.7942Z" fill="#211E27"/>
<path d="M7.41454 41.2002C3.3244 41.2002 0 37.8758 0 33.7856C0 29.6955 3.3244 26.3711 7.41454 26.3711C11.5047 26.3711 14.8291 29.6955 14.8291 33.7856C14.8197 37.8758 11.4953 41.2002 7.41454 41.2002ZM7.41454 27.473C3.93139 27.473 1.09257 30.3118 1.09257 33.795C1.09257 37.2781 3.93139 40.1169 7.41454 40.1169C10.8977 40.1169 13.7365 37.2781 13.7365 33.795C13.7272 30.3118 10.8977 27.473 7.41454 27.473Z" fill="#211E27"/>
<path d="M6.0418 36.419C5.89239 36.419 5.76166 36.363 5.65894 36.2603L4.22085 34.8222C4.01541 34.6167 4.01541 34.2619 4.22085 34.0564C4.42629 33.851 4.78115 33.851 4.98659 34.0564L6.03246 35.1023L9.81444 31.3203C10.0199 31.1149 10.3747 31.1149 10.5802 31.3203C10.7856 31.5258 10.7856 31.8806 10.5802 32.0861L6.42467 36.2603C6.32195 36.363 6.19121 36.419 6.0418 36.419Z" fill="#211E27"/>
<path d="M10.6175 46C8.21761 46 6.25659 44.0483 6.25659 41.6391V40.6305C6.25659 40.3317 6.49939 40.0889 6.79821 40.0889C7.09703 40.0889 7.33982 40.3317 7.33982 40.6305V41.6391C7.33982 43.4413 8.80592 44.9168 10.6175 44.9168C10.9164 44.9168 11.1591 45.1596 11.1591 45.4584C11.1685 45.7572 10.9257 46 10.6175 46Z" fill="#211E27"/>
<path d="M40.3784 39.8181C40.0796 39.8181 39.8368 39.5753 39.8368 39.2765V1.98904C39.8368 1.48477 39.4352 1.08323 38.931 1.08323H8.25497C7.75071 1.08323 7.34916 1.48477 7.34916 1.98904V26.9314C7.34916 27.2302 7.10637 27.473 6.80755 27.473C6.50872 27.473 6.26593 27.2302 6.26593 26.9314V1.98904C6.26593 0.887129 7.15306 0 8.25497 0H38.931C40.0329 0 40.92 0.887129 40.92 1.98904V39.2672C40.92 39.566 40.6866 39.8181 40.3784 39.8181Z" fill="#211E27"/>
</svg>
