<svg width="50" height="50" viewBox="0 0 50 50" fill="none" xmlns="http://www.w3.org/2000/svg">
<path d="M33.5938 5.46875H44.5312C46.2598 5.46875 47.6562 6.86523 47.6562 8.59375V34.375C47.6562 36.1035 46.2598 37.5 44.5312 37.5H33.5938C31.8652 37.5 30.4688 36.1035 30.4688 34.375V8.59375C30.4688 6.86523 31.8652 5.46875 33.5938 5.46875Z" fill="#E4F6FF"/>
<path d="M35.9375 5.46875H38.2812V37.5H35.9375V5.46875Z" fill="#E4F6FF"/>
<path d="M40.625 16.4062H38.2812V14.0625H35.9375V11.7188H38.2812V9.375H40.625V11.7188H42.9688V14.0625H40.625V16.4062Z" fill="#E4F6FF"/>
<path d="M38.2812 21.875H44.5312V23.4375H38.2812V21.875Z" fill="#348FD9"/>
<path d="M38.2812 18.75H44.5312V20.3125H38.2812V18.75Z" fill="#348FD9"/>
<path d="M38.2812 25H44.5312V26.5625H38.2812V25Z" fill="#348FD9"/>
<path d="M38.2812 28.125H44.5312V29.6875H38.2812V28.125Z" fill="#348FD9"/>
<path d="M38.2812 31.25H44.5312V32.8125H38.2812V31.25Z" fill="#348FD9"/>
<path d="M5.46875 5.46875H16.4062C18.1348 5.46875 19.5312 6.86523 19.5312 8.59375V34.375C19.5312 36.1035 18.1348 37.5 16.4062 37.5H5.46875C3.74023 37.5 2.34375 36.1035 2.34375 34.375V8.59375C2.34375 6.86523 3.74023 5.46875 5.46875 5.46875Z" fill="#E4F6FF"/>
<path d="M11.7188 16.4062H9.375V14.0625H7.03125V11.7188H9.375V9.375H11.7188V11.7188H14.0625V14.0625H11.7188V16.4062Z" fill="#E4F6FF"/>
<path d="M8.59375 21.875H11.7188V23.4375H8.59375V21.875Z" fill="#348FD9"/>
<path d="M5.46875 21.875H7.03125V23.4375H5.46875V21.875Z" fill="#348FD9"/>
<path d="M8.59375 18.75H11.7188V20.3125H8.59375V18.75Z" fill="#348FD9"/>
<path d="M5.46875 18.75H7.03125V20.3125H5.46875V18.75Z" fill="#348FD9"/>
<path d="M8.59375 25H11.7188V26.5625H8.59375V25Z" fill="#348FD9"/>
<path d="M5.46875 25H7.03125V26.5625H5.46875V25Z" fill="#348FD9"/>
<path d="M8.59375 28.125H11.7188V29.6875H8.59375V28.125Z" fill="#348FD9"/>
<path d="M5.46875 28.125H7.03125V29.6875H5.46875V28.125Z" fill="#348FD9"/>
<path d="M8.59375 31.25H11.7188V32.8125H8.59375V31.25Z" fill="#348FD9"/>
<path d="M5.46875 31.25H7.03125V32.8125H5.46875V31.25Z" fill="#348FD9"/>
<path d="M17.1875 2.34375H32.8125C34.541 2.34375 35.9375 3.74023 35.9375 5.46875V36.7188C35.9375 38.4473 34.541 39.8438 32.8125 39.8438H17.1875C15.459 39.8438 14.0625 38.4473 14.0625 36.7188V5.46875C14.0625 3.74023 15.459 2.34375 17.1875 2.34375Z" fill="#E4F6FF"/>
<path d="M29.6875 9.375H26.5625V6.25H23.4375V9.375H20.3125V12.5H23.4375V15.625H26.5625V12.5H29.6875V9.375Z" fill="#B3E59F"/>
<path d="M25 17.9688H29.6875V19.5312H25V17.9688Z" fill="#B3E59F"/>
<path d="M20.3125 17.9688H23.4375V19.5312H20.3125V17.9688Z" fill="#B3E59F"/>
<path d="M20.3125 24.2188H32.8125V25.7812H20.3125V24.2188Z" fill="#B3E59F"/>
<path d="M17.1875 24.2188H18.75V25.7812H17.1875V24.2188Z" fill="#B3E59F"/>
<path d="M20.3125 21.0938H32.8125V22.6562H20.3125V21.0938Z" fill="#B3E59F"/>
<path d="M17.1875 21.0938H18.75V22.6562H17.1875V21.0938Z" fill="#B3E59F"/>
<path d="M20.3125 27.3438H26.5625V28.9062H20.3125V27.3438Z" fill="#B3E59F"/>
<path d="M17.1875 27.3438H18.75V28.9062H17.1875V27.3438Z" fill="#B3E59F"/>
<path d="M20.3125 30.4688H26.5625V32.0312H20.3125V30.4688Z" fill="#B3E59F"/>
<path d="M17.1875 30.4688H18.75V32.0312H17.1875V30.4688Z" fill="#B3E59F"/>
<path d="M20.3125 33.5938H26.5625V35.1562H20.3125V33.5938Z" fill="#B3E59F"/>
<path d="M17.1875 33.5938H18.75V35.1562H17.1875V33.5938Z" fill="#B3E59F"/>
<path d="M28.9063 47.6562H41.4062V36.7188C41.4062 35.8887 40.791 35.127 39.9512 35.0781C39.3848 35.0391 38.8477 35.3027 38.5352 35.7812C38.3691 36.0352 38.2812 36.3281 38.2812 36.6211C38.2812 35.7617 37.5781 35.0586 36.7188 35.0586C35.8594 35.0586 35.1563 35.7617 35.1563 36.6211C35.1563 35.7617 34.4531 35.0586 33.5938 35.0586C32.7344 35.0586 32.0313 35.7617 32.0313 36.6211V29.6875C32.0313 28.8281 31.3281 28.125 30.4688 28.125C29.6094 28.125 28.9063 28.8281 28.9063 29.6875V42.1875L25.8105 38.584C25.2246 37.9004 24.1992 37.8223 23.5156 38.4082C23.3496 38.5449 23.2129 38.7207 23.1152 38.916C22.832 39.4824 22.9004 40.166 23.3008 40.6641L28.9063 47.6562Z" fill="#FEC9A3"/>
<path d="M44.5312 4.6875H38.2812V6.25H44.5312C45.8203 6.25 46.875 7.30469 46.875 8.59375V34.375C46.875 35.6641 45.8203 36.7188 44.5312 36.7188H43.75V38.2812H44.5312C46.6895 38.2812 48.4375 36.5332 48.4375 34.375V8.59375C48.4375 6.43555 46.6895 4.6875 44.5312 4.6875Z" fill="black"/>
<path d="M38.2812 21.875H44.5312V23.4375H38.2812V21.875Z" fill="black"/>
<path d="M38.2812 18.75H44.5312V20.3125H38.2812V18.75Z" fill="black"/>
<path d="M38.2812 25H44.5312V26.5625H38.2812V25Z" fill="black"/>
<path d="M38.2812 28.125H44.5312V29.6875H38.2812V28.125Z" fill="black"/>
<path d="M38.2812 31.25H44.5312V32.8125H38.2812V31.25Z" fill="black"/>
<path d="M39.0625 16.4062H39.8438C40.2734 16.4062 40.625 16.0547 40.625 15.625V14.0625H42.1875C42.6172 14.0625 42.9688 13.7109 42.9688 13.2812V12.5C42.9688 12.0703 42.6172 11.7188 42.1875 11.7188H40.625V10.1562C40.625 9.72656 40.2734 9.375 39.8438 9.375H39.0625C38.6328 9.375 38.2812 9.72656 38.2812 10.1562V15.625C38.2812 16.0547 38.6328 16.4062 39.0625 16.4062Z" fill="#365E7D"/>
<path d="M3.125 34.375V11.7188H1.5625V34.375C1.5625 36.5332 3.31055 38.2812 5.46875 38.2812H11.7188V36.7188H5.46875C4.17969 36.7188 3.125 35.6641 3.125 34.375Z" fill="black"/>
<path d="M1.5625 8.59375V10.1562H3.125V8.59375C3.125 7.30469 4.17969 6.25 5.46875 6.25H11.7188V4.6875H5.46875C3.31055 4.6875 1.5625 6.43555 1.5625 8.59375Z" fill="black"/>
<path d="M10.9375 9.375H10.1562C9.72656 9.375 9.375 9.72656 9.375 10.1562V11.7188H7.8125C7.38281 11.7188 7.03125 12.0703 7.03125 12.5V13.2812C7.03125 13.7109 7.38281 14.0625 7.8125 14.0625H9.375V15.625C9.375 16.0547 9.72656 16.4062 10.1562 16.4062H10.9375C11.3672 16.4062 11.7188 16.0547 11.7188 15.625V10.1562C11.7188 9.72656 11.3672 9.375 10.9375 9.375Z" fill="#365E7D"/>
<path d="M8.59375 21.875H11.7188V23.4375H8.59375V21.875Z" fill="black"/>
<path d="M5.46875 21.875H7.03125V23.4375H5.46875V21.875Z" fill="black"/>
<path d="M8.59375 18.75H11.7188V20.3125H8.59375V18.75Z" fill="black"/>
<path d="M5.46875 18.75H7.03125V20.3125H5.46875V18.75Z" fill="black"/>
<path d="M8.59375 25H11.7188V26.5625H8.59375V25Z" fill="black"/>
<path d="M5.46875 25H7.03125V26.5625H5.46875V25Z" fill="black"/>
<path d="M8.59375 28.125H11.7188V29.6875H8.59375V28.125Z" fill="black"/>
<path d="M5.46875 28.125H7.03125V29.6875H5.46875V28.125Z" fill="black"/>
<path d="M8.59375 31.25H11.7188V32.8125H8.59375V31.25Z" fill="black"/>
<path d="M5.46875 31.25H7.03125V32.8125H5.46875V31.25Z" fill="black"/>
<path d="M14.9219 37.3047C14.873 37.1094 14.8438 36.9141 14.8438 36.7188V5.46875C14.8438 4.17969 15.8984 3.125 17.1875 3.125H32.8125C34.1016 3.125 35.1562 4.17969 35.1562 5.46875V32.8125H36.7188V5.46875C36.7188 3.31055 34.9707 1.5625 32.8125 1.5625H17.1875C15.0293 1.5625 13.2812 3.31055 13.2812 5.46875V36.7188C13.2812 38.877 15.0293 40.625 17.1777 40.625C17.1777 40.625 17.1777 40.625 17.1875 40.625H20.3125V39.0625H17.1875C16.123 39.0625 15.1855 38.3398 14.9219 37.3047Z" fill="black"/>
<path d="M26.5625 5.46875H23.4375C23.0078 5.46875 22.6562 5.82031 22.6562 6.25V8.59375H20.3125C19.8828 8.59375 19.5312 8.94531 19.5312 9.375V12.5C19.5312 12.9297 19.8828 13.2812 20.3125 13.2812H22.6562V15.625C22.6562 16.0547 23.0078 16.4062 23.4375 16.4062H26.5625C26.9922 16.4062 27.3438 16.0547 27.3438 15.625V13.2812H29.6875C30.1172 13.2812 30.4688 12.9297 30.4688 12.5V9.375C30.4688 8.94531 30.1172 8.59375 29.6875 8.59375H27.3438V6.25C27.3438 5.82031 26.9922 5.46875 26.5625 5.46875ZM28.9062 10.1562V11.7188H26.5625C26.1328 11.7188 25.7812 12.0703 25.7812 12.5V14.8438H24.2188V12.5C24.2188 12.0703 23.8672 11.7188 23.4375 11.7188H21.0938V10.1562H23.4375C23.8672 10.1562 24.2188 9.80469 24.2188 9.375V7.03125H25.7812V9.375C25.7812 9.80469 26.1328 10.1562 26.5625 10.1562H28.9062Z" fill="black"/>
<path d="M25 17.9688H29.6875V19.5312H25V17.9688Z" fill="black"/>
<path d="M20.3125 17.9688H23.4375V19.5312H20.3125V17.9688Z" fill="black"/>
<path d="M20.3125 24.2188H32.8125V25.7812H20.3125V24.2188Z" fill="black"/>
<path d="M17.1875 24.2188H18.75V25.7812H17.1875V24.2188Z" fill="black"/>
<path d="M20.3125 21.0938H32.8125V22.6562H20.3125V21.0938Z" fill="black"/>
<path d="M17.1875 21.0938H18.75V22.6562H17.1875V21.0938Z" fill="black"/>
<path d="M20.3125 27.3438H26.5625V28.9062H20.3125V27.3438Z" fill="black"/>
<path d="M17.1875 27.3438H18.75V28.9062H17.1875V27.3438Z" fill="black"/>
<path d="M20.3125 30.4688H26.5625V32.0312H20.3125V30.4688Z" fill="black"/>
<path d="M17.1875 30.4688H18.75V32.0312H17.1875V30.4688Z" fill="black"/>
<path d="M20.3125 33.5938H26.5625V35.1562H20.3125V33.5938Z" fill="black"/>
<path d="M17.1875 33.5938H18.75V35.1562H17.1875V33.5938Z" fill="black"/>
<path d="M40 34.2969C39.3652 34.2578 38.75 34.4629 38.2812 34.8828C37.3926 34.0918 36.0449 34.0918 35.1562 34.8828C34.5215 34.3164 33.623 34.1406 32.8125 34.4238V29.6875C32.8125 28.3887 31.7676 27.3438 30.4687 27.3438C29.1699 27.3438 28.125 28.3887 28.125 29.6875V40.0781L26.4062 38.0762C25.5469 37.0605 24.0234 36.9434 23.0078 37.8027C22.0215 38.6523 21.875 40.127 22.6953 41.1426L28.291 48.1445C28.4375 48.3301 28.6621 48.4375 28.8965 48.4375H41.3965C41.8262 48.4375 42.1777 48.0859 42.1777 47.6562V36.7188C42.1875 35.4395 41.2305 34.375 40 34.2969ZM40.625 46.875H29.2773L23.916 40.166C23.7109 39.9121 23.6719 39.5508 23.8184 39.2578C24.0234 38.8379 24.541 38.6719 24.9512 38.877C25.0488 38.9258 25.1465 38.9941 25.2148 39.082L28.3105 42.6855C28.5937 43.0176 29.082 43.0469 29.4141 42.7734C29.5898 42.627 29.6875 42.4121 29.6875 42.1777V29.6875C29.6875 29.2578 30.0391 28.9062 30.4687 28.9062C30.8984 28.9062 31.25 29.2578 31.25 29.6875V38.2812H32.8125V36.6211C32.8125 36.1914 33.1641 35.8398 33.5937 35.8398C34.0234 35.8398 34.375 36.1914 34.375 36.6211V38.2812H35.9375V36.6211C35.9375 36.1914 36.2891 35.8398 36.7188 35.8398C37.1484 35.8398 37.5 36.1914 37.5 36.6211V38.2812H39.0625V36.6211C39.0723 36.1816 39.4434 35.8398 39.8828 35.8496C39.8926 35.8496 39.8926 35.8496 39.9023 35.8496C40.3027 35.8789 40.625 36.2598 40.625 36.7188V46.875Z" fill="black"/>
</svg>
