<svg width="51" height="51" viewBox="0 0 51 51" fill="none" xmlns="http://www.w3.org/2000/svg">
<g clip-path="url(#clip0_40_167)">
<path d="M5.02265 49.3421L2.49768 48.1394L5.50076 41.8195L8.02573 43.0222L5.02265 49.3421Z" fill="#F8A5AF"/>
<path d="M6.77713 42.4286L4.03552 48.1957C3.89358 48.502 3.52754 48.629 3.22125 48.4871L5.02907 49.3462L8.03215 43.0263L6.77713 42.4286Z" fill="#F58A97"/>
<path d="M10.9642 49.3421L13.4891 48.1394L10.4861 41.8195L7.96109 43.0222L10.9642 49.3421Z" fill="#F8A5AF"/>
<path d="M11.9756 48.1959C12.1175 48.4947 11.9905 48.8608 11.6917 49.0027L11.3331 49.1745L13.492 48.1511L10.489 41.8312L9.23395 42.4288L11.9756 48.1959Z" fill="#F58A97"/>
<path d="M35.6244 27.1422H14.2219V11.6039H36.7674V25.9993C36.7749 26.6268 36.2594 27.1422 35.6244 27.1422Z" fill="#EDF9F5"/>
<path d="M34.251 11.5988V25.9941C34.251 26.6291 33.7356 27.1371 33.1081 27.1371H35.6256C36.2605 27.1371 36.7685 26.6216 36.7685 25.9941V11.5988H34.251Z" fill="#D8E5E1"/>
<path d="M37.4469 13.646H13.5492C12.9143 13.646 12.4063 13.1305 12.4063 12.503V8.59602C12.4063 7.96104 12.9217 7.45306 13.5492 7.45306H37.4469C38.0818 7.45306 38.5898 7.96851 38.5898 8.59602V12.503C38.5973 13.138 38.0818 13.646 37.4469 13.646Z" fill="#EDF9F5"/>
<path d="M37.4468 7.44765H34.9293C35.5643 7.44765 36.0723 7.9631 36.0723 8.59061V12.4976C36.0723 13.1326 35.5568 13.6406 34.9293 13.6406H37.4468C38.0818 13.6406 38.5898 13.1251 38.5898 12.4976V8.59061C38.5973 7.9631 38.0818 7.44765 37.4468 7.44765Z" fill="#D8E5E1"/>
<path d="M28.8752 19.1314H26.9179V17.1741H24.0792V19.1388H22.1145V21.9776H24.0792V23.9348H26.9179V21.9701H28.8826V19.1314H28.8752Z" fill="#EB5569"/>
<path d="M26.9179 19.1314V17.1741H24.9233C25.2072 17.1741 25.4313 17.4057 25.4313 17.6821V19.1314H26.8432C27.1495 19.1314 27.396 19.3779 27.396 19.6842V21.4173C27.396 21.7236 27.1495 21.9701 26.8432 21.9701H25.4313V23.4194C25.4313 23.7032 25.1997 23.9273 24.9233 23.9273H26.9179V21.9626H28.8826V19.1239H26.9179V19.1314Z" fill="#E53950"/>
<path d="M42.4893 33.2226L29.1323 38.28L27.4739 33.9024L40.8309 28.845C42.0411 28.3893 43.3932 28.9944 43.8489 30.2046C44.3121 31.4148 43.6995 32.7669 42.4893 33.2226Z" fill="#FFBD86"/>
<path d="M43.847 30.2055C43.4137 29.0551 42.1587 28.4425 41.0008 28.7861C40.9859 29.7199 40.4181 30.594 39.4843 30.9451L27.9949 35.2928L29.123 38.2735L42.4874 33.2235C43.6976 32.7678 44.3102 31.4157 43.847 30.2055Z" fill="#F6A96C"/>
<path d="M46.7039 34.7744L33.347 39.8244L27.2885 35.9249L31.3449 35.5663L45.0455 30.3893C46.2557 29.9336 47.6078 30.5387 48.0635 31.7489C48.5267 32.9591 47.9141 34.3113 46.7039 34.7744Z" fill="#FED2A4"/>
<path d="M46.7041 34.7744L33.3472 39.8243L30.9641 38.2929L44.351 33.228C45.5462 32.7723 46.1588 31.4501 45.7255 30.2474C46.7266 30.1801 47.6977 30.7703 48.0712 31.7564C48.5269 32.9591 47.9143 34.3112 46.7041 34.7744Z" fill="#FFBD86"/>
<path d="M50.2533 36.8482C50.2533 37.7894 49.6781 38.6784 48.7369 39.037C46.2268 39.9857 41.3412 41.8906 37.8825 43.2428C35.2902 44.2587 32.5561 44.8638 29.7771 45.0506L24.6301 45.3942C23.3078 45.4241 21.993 45.2224 20.738 44.8041L17.6005 43.6835L13.9326 42.7198L7.71723 43.9898L4.86356 44.5725L0.747406 45.4092V28.6831L4.86356 28.0705L6.2904 27.8539L7.71723 27.6372L9.14406 27.4206L12.0052 26.4569C14.2687 25.7024 16.7339 25.7472 18.9377 26.6586C19.0124 26.6885 19.0871 26.7259 19.1618 26.7557L27.2223 30.334C28.0067 30.6851 28.8508 30.8794 29.7099 30.9167C31.4057 30.9839 34.1548 31.1035 34.1622 31.1035C36.7395 31.477 36.6498 35.1748 33.9755 35.369L28.9106 36.0339L36.4332 38.3497L47.0261 34.622L47.056 34.6145C48.2812 34.1812 49.6333 34.8088 50.0965 36.0264C50.201 36.2954 50.2533 36.5718 50.2533 36.8482Z" fill="#FFE5C2"/>
<path d="M31.2346 34.2659L23.1592 36.1036L28.9263 36.0364L33.9688 35.379C36.6357 35.1923 36.7328 31.4944 34.1555 31.1134C34.1555 31.1134 33.6924 31.091 33.0275 31.0686C33.7073 32.3012 33.0947 34.1315 31.2346 34.2659Z" fill="#FED2A4"/>
<path d="M50.1017 36.0197C49.6609 34.8469 48.391 34.2194 47.2032 34.563C47.2629 34.6676 47.3152 34.7871 47.3601 34.8992C47.4646 35.1756 47.5095 35.452 47.5095 35.7284C47.5095 36.6696 46.9342 37.5586 45.993 37.9172C42.9899 39.0527 34.1973 42.1753 30.0363 43.7515C29.3565 44.013 28.6319 44.1474 27.8998 44.1624L21.8862 44.4761C21.0944 44.4911 19.8991 44.267 18.7935 44.1549L20.7358 44.8048C21.9908 45.2232 23.3056 45.4249 24.6278 45.395L29.7749 45.0513C32.5539 44.8646 35.288 44.2595 37.8802 43.2435C41.3464 41.8914 46.232 39.9865 48.7346 39.0377C49.6684 38.6866 50.2511 37.7902 50.2511 36.8489C50.2511 36.5725 50.1988 36.2961 50.1017 36.0197Z" fill="#FED2A4"/>
<path d="M10.5829 41.7259L0.744476 43.7354V45.4088L13.8773 42.7344L11.7707 41.8455C11.3972 41.6886 10.9788 41.6512 10.5829 41.7259Z" fill="#FED2A4"/>
<path d="M7.71423 27.6387V43.9838L4.86057 44.5665V28.072L7.71423 27.6387Z" fill="#FED2A4"/>
<path d="M9.14331 27.4325V43.7029L6.28964 44.2856V27.8584L9.14331 27.4325Z" fill="#F8A5AF"/>
<path d="M7.71423 27.6387V43.9838L9.14107 43.6925V27.4296L7.71423 27.6387Z" fill="#F58A97"/>
<path d="M20.7418 36.8765C20.3309 36.8765 20.0022 36.5478 19.9947 36.137C19.9873 35.7261 20.3234 35.3899 20.7343 35.3825L28.9068 35.2928H28.9143C29.3252 35.2928 29.6539 35.6215 29.6613 36.0324C29.6688 36.4433 29.3326 36.7794 28.9218 36.7869L20.7492 36.8765H20.7418Z" fill="black"/>
<path d="M0.745905 46.1592C0.574087 46.1592 0.409739 46.0994 0.275273 45.9874C0.103455 45.8454 -0.00112915 45.6363 -0.00112915 45.4122V28.6861C-0.00112915 28.3125 0.267803 27.9988 0.63385 27.9465L8.96328 26.699L11.7647 25.7577C14.2373 24.9285 16.8818 25.0107 19.2201 25.9818C19.3022 26.0192 19.3844 26.049 19.4591 26.0864L27.5271 29.6647C28.2293 29.9784 28.9763 30.1503 29.7458 30.1801C34.213 30.3669 34.213 30.3669 34.2504 30.3744C34.2578 30.3744 34.2653 30.3744 34.2728 30.3744C36.0657 30.6358 36.8351 32.1 36.7903 33.3476C36.7455 34.5876 35.8714 35.9771 34.0636 36.1191L32.4201 36.3357L36.4242 37.5683L46.8155 33.9004C48.4141 33.3326 50.207 34.1618 50.8046 35.753C50.9391 36.1041 51.0063 36.4776 51.0063 36.8437C51.0063 38.1211 50.207 39.279 49.0118 39.7272C46.5316 40.6685 41.7431 42.5286 38.1648 43.9256C35.4979 44.9714 32.6965 45.5914 29.8354 45.7857L24.6883 46.1293C24.6809 46.1293 24.6659 46.1293 24.6585 46.1293C23.2466 46.1592 21.8496 45.95 20.5124 45.5018C20.5049 45.5018 20.5049 45.5018 20.4975 45.4943L17.3599 44.3738C16.9715 44.2318 16.7698 43.806 16.9042 43.4176C17.0462 43.0291 17.472 42.8274 17.8605 42.9619L20.9905 44.075C22.1559 44.4634 23.3736 44.6502 24.6062 44.6278L29.7383 44.2841C32.4426 44.1048 35.0945 43.5147 37.6195 42.5286C41.2053 41.1317 45.9937 39.2641 48.4814 38.3228C49.0939 38.0912 49.5123 37.4936 49.5123 36.8362C49.5123 36.6494 49.4749 36.4552 49.4077 36.2685C49.0939 35.4393 48.1527 34.9985 47.316 35.2973L47.2861 35.3048L36.6857 39.0474C36.5363 39.0997 36.3719 39.1072 36.2151 39.0549L28.6924 36.7391C28.3563 36.6345 28.1396 36.3133 28.1695 35.9622C28.1994 35.6111 28.4683 35.3272 28.8194 35.2824L33.8843 34.6175C33.8993 34.6175 33.9142 34.6175 33.9291 34.61C34.9003 34.5428 35.2738 33.8481 35.2962 33.2729C35.3186 32.7051 35.0123 31.988 34.0935 31.8386C33.7648 31.8236 31.3295 31.719 29.686 31.6518C28.7298 31.6144 27.8035 31.3978 26.922 31.0019L18.8615 27.4236C18.7942 27.3937 18.7195 27.3638 18.6523 27.3339C16.6503 26.5271 14.3718 26.4599 12.2428 27.1771L9.38162 28.1407C9.33679 28.1557 9.29944 28.1631 9.25462 28.1706L1.49294 29.3285V44.5008L13.7816 41.9907C14.185 41.9086 14.581 42.17 14.6631 42.5734C14.7453 42.9768 14.4839 43.3728 14.0805 43.4549L0.895311 46.1442C0.843019 46.1517 0.798197 46.1592 0.745905 46.1592Z" fill="black"/>
<path d="M47.0269 35.369C46.7654 35.369 46.5114 35.2346 46.377 34.988C46.1753 34.6295 46.3023 34.1738 46.6608 33.9721C47.1614 33.6882 47.4676 33.1578 47.4676 32.5826C47.4676 32.3884 47.4303 32.2016 47.3631 32.0223C47.0493 31.2006 46.1304 30.7822 45.3087 31.096L36.2397 34.5249C35.8513 34.6743 35.4255 34.4726 35.276 34.0916C35.1266 33.7031 35.3283 33.2773 35.7093 33.1279L44.7858 29.6916C46.377 29.0865 48.1624 29.8933 48.7675 31.4919C48.9019 31.843 48.9692 32.2091 48.9692 32.5826C48.9692 33.6957 48.3715 34.7266 47.4004 35.2719C47.2809 35.3391 47.1539 35.369 47.0269 35.369Z" fill="black"/>
<path d="M34.5783 31.9558C34.2795 31.9558 33.9956 31.7691 33.8761 31.4702C33.7267 31.0818 33.9284 30.656 34.3094 30.5066L40.5621 28.1385C41.3315 27.8471 42.1757 27.8695 42.9227 28.2132C43.6772 28.5493 44.2524 29.1619 44.5438 29.9388C44.6409 30.1853 44.7006 30.4468 44.7305 30.7083C44.7753 31.1191 44.4765 31.4852 44.0657 31.53C43.6548 31.5748 43.2887 31.276 43.2439 30.8651C43.229 30.7307 43.1991 30.5962 43.1468 30.4692C42.9974 30.0733 42.6986 29.7521 42.3101 29.5803C41.9217 29.4084 41.4884 29.3935 41.0925 29.5429L34.8398 31.911C34.7576 31.9409 34.668 31.9558 34.5783 31.9558Z" fill="black"/>
<path d="M14.2247 26.6556C13.8138 26.6556 13.4777 26.3195 13.4777 25.9086V13.6498C13.4777 13.2389 13.8138 12.9027 14.2247 12.9027C14.6356 12.9027 14.9717 13.2389 14.9717 13.6498V25.9086C14.9717 26.3195 14.6356 26.6556 14.2247 26.6556Z" fill="black"/>
<path d="M35.6242 27.8845H24.8818C24.471 27.8845 24.1348 27.5483 24.1348 27.1374C24.1348 26.7266 24.471 26.3904 24.8818 26.3904H35.6242C35.8408 26.3904 36.0201 26.2111 36.0201 25.9945V13.646C36.0201 13.2351 36.3563 12.899 36.7671 12.899C37.178 12.899 37.5142 13.2351 37.5142 13.646V25.9945C37.5216 27.0403 36.67 27.8845 35.6242 27.8845Z" fill="black"/>
<path d="M37.4521 14.393H35.0018C34.591 14.393 34.2548 14.0568 34.2548 13.646C34.2548 13.2351 34.591 12.8989 35.0018 12.8989H37.4521C37.6687 12.8989 37.848 12.7196 37.848 12.503V8.59602C37.848 8.37938 37.6687 8.20009 37.4521 8.20009H13.5545C13.3378 8.20009 13.1586 8.37938 13.1586 8.59602V12.503C13.1586 12.7196 13.3378 12.8989 13.5545 12.8989H31.4086C31.8195 12.8989 32.1556 13.2351 32.1556 13.646C32.1556 14.0568 31.8195 14.393 31.4086 14.393H13.5545C12.5086 14.393 11.6645 13.5414 11.6645 12.503V8.59602C11.6645 7.55017 12.5161 6.70602 13.5545 6.70602H37.4521C38.4979 6.70602 39.3421 7.55764 39.3421 8.59602V12.503C39.3421 13.5489 38.4905 14.393 37.4521 14.393Z" fill="black"/>
<path d="M5.02493 50.0901C4.91287 50.0901 4.80829 50.0677 4.7037 50.0154L2.17873 48.8127C1.99944 48.7305 1.86498 48.5736 1.79774 48.3868C1.73051 48.2001 1.74545 47.9984 1.82762 47.8191L3.45616 44.3977C3.63545 44.0242 4.0762 43.8673 4.44971 44.0466C4.82323 44.2259 4.98011 44.6666 4.80082 45.0401L3.49351 47.7892L4.66635 48.3495L6.87757 43.7029C7.05686 43.3294 7.49761 43.1725 7.87113 43.3518C8.24464 43.5311 8.40152 43.9719 8.22223 44.3454L5.68979 49.6643C5.60762 49.8436 5.45074 49.978 5.26398 50.0453C5.18928 50.0751 5.1071 50.0901 5.02493 50.0901Z" fill="black"/>
<path d="M10.9646 50.0923C10.6882 50.0923 10.4193 49.9354 10.2923 49.6665L7.67765 44.1833C7.49836 43.8097 7.65523 43.3615 8.02875 43.1897C8.40227 43.0104 8.85049 43.1673 9.02231 43.5408L11.3082 48.3517L12.4811 47.7914L10.4865 43.608C10.3072 43.2345 10.4641 42.7863 10.8376 42.6145C11.2111 42.4352 11.6593 42.5921 11.8312 42.9656L14.1395 47.8288C14.2217 48.0081 14.2366 48.2098 14.1694 48.3965C14.1021 48.5833 13.9677 48.7327 13.7884 48.8223L11.2634 50.0251C11.1812 50.0699 11.0692 50.0923 10.9646 50.0923Z" fill="black"/>
<path d="M26.9179 24.6818H24.0792C23.6683 24.6818 23.3322 24.3457 23.3322 23.9348V22.7171H22.1145C21.7036 22.7171 21.3675 22.381 21.3675 21.9701V19.1314C21.3675 18.7205 21.7036 18.3843 22.1145 18.3843H23.3322V17.1742C23.3322 16.7633 23.6683 16.4271 24.0792 16.4271H26.9179C27.3288 16.4271 27.665 16.7633 27.665 17.1742V18.3918H28.8826C29.2935 18.3918 29.6297 18.728 29.6297 19.1388V21.9776C29.6297 22.3884 29.2935 22.7246 28.8826 22.7246H27.665V23.9348C27.665 24.3457 27.3288 24.6818 26.9179 24.6818ZM24.8262 23.1878H26.1709V21.9701C26.1709 21.5592 26.5071 21.2231 26.9179 21.2231H28.1356V19.8784H26.9179C26.5071 19.8784 26.1709 19.5422 26.1709 19.1314V17.9212H24.8262V19.1388C24.8262 19.5497 24.4901 19.8859 24.0792 19.8859H22.8615V21.2305H24.0792C24.4901 21.2305 24.8262 21.5667 24.8262 21.9776V23.1878Z" fill="black"/>
<path d="M6.28964 45.0252C6.11782 45.0252 5.95347 44.9654 5.81901 44.8534C5.64719 44.7114 5.5426 44.5023 5.5426 44.2782V27.8584C5.5426 27.4848 5.81153 27.1711 6.17758 27.1188L9.03125 26.693C9.24789 26.6631 9.46453 26.7229 9.62888 26.8648C9.79322 27.0067 9.89034 27.2159 9.89034 27.4325V43.7029C9.89034 44.0615 9.64382 44.3603 9.29271 44.435L6.43904 45.0177C6.38675 45.0252 6.34193 45.0252 6.28964 45.0252ZM7.03667 28.5008V43.3668L8.39627 43.0904V28.2991L7.03667 28.5008Z" fill="black"/>
<path d="M43.9887 17.324C43.5778 17.324 43.2416 16.9879 43.2416 16.577V13.8204C43.2416 13.4096 43.5778 13.0734 43.9887 13.0734C44.3995 13.0734 44.7357 13.4096 44.7357 13.8204V16.577C44.7357 16.9953 44.3995 17.324 43.9887 17.324Z" fill="black"/>
<path d="M45.3682 15.947H42.6117C42.2008 15.947 41.8647 15.6109 41.8647 15.2C41.8647 14.7891 42.2008 14.4529 42.6117 14.4529H45.3682C45.7791 14.4529 46.1153 14.7891 46.1153 15.2C46.1153 15.6109 45.7791 15.947 45.3682 15.947Z" fill="black"/>
<path d="M42.0995 23.1065C42.0995 23.5174 41.7708 23.8461 41.3599 23.8461C40.9491 23.8461 40.6204 23.5174 40.6204 23.1065C40.6204 22.6956 40.9491 22.3669 41.3599 22.3669C41.7633 22.3669 42.0995 22.6956 42.0995 23.1065Z" fill="black"/>
</g>
<defs>
<clipPath id="clip0_40_167">
<rect width="51" height="51" fill="white"/>
</clipPath>
</defs>
</svg>
